<?xml version="1.0" encoding="UTF-8" standalone="no"?>
<svg
   xmlns:dc="http://purl.org/dc/elements/1.1/"
   xmlns:cc="http://creativecommons.org/ns#"
   xmlns:rdf="http://www.w3.org/1999/02/22-rdf-syntax-ns#"
   xmlns:svg="http://www.w3.org/2000/svg"
   xmlns="http://www.w3.org/2000/svg"
   xmlns:sodipodi="http://sodipodi.sourceforge.net/DTD/sodipodi-0.dtd"
   xmlns:inkscape="http://www.inkscape.org/namespaces/inkscape"
   id="Capa_1"
   enable-background="new 0 0 511.938 511.938"
   height="48"
   viewBox="0 0 48 48"
   width="48"
   version="1.1"
   sodipodi:docname="calc.svg"
   inkscape:version="0.92.4 (5da689c313, 2019-01-14)">
  <metadata
     id="metadata15">
    <rdf:RDF>
      <cc:Work
         rdf:about="">
        <dc:format>image/svg+xml</dc:format>
        <dc:type
           rdf:resource="http://purl.org/dc/dcmitype/StillImage" />
        <dc:title />
      </cc:Work>
    </rdf:RDF>
  </metadata>
  <defs
     id="defs13" />
  <sodipodi:namedview
     pagecolor="#ffffff"
     bordercolor="#666666"
     borderopacity="1"
     objecttolerance="10"
     gridtolerance="10"
     guidetolerance="10"
     inkscape:pageopacity="0"
     inkscape:pageshadow="2"
     inkscape:window-width="1920"
     inkscape:window-height="1017"
     id="namedview11"
     showgrid="true"
     inkscape:zoom="5.656854"
     inkscape:cx="-19.223287"
     inkscape:cy="48.645188"
     inkscape:window-x="-8"
     inkscape:window-y="-8"
     inkscape:window-maximized="1"
     inkscape:current-layer="Capa_1"
     showguides="false">
    <inkscape:grid
       type="xygrid"
       id="grid825" />
  </sodipodi:namedview>
  <g
     transform="matrix(0.0703125,0,0,0.0703125,6,6)"
     id="g6">
    <g
       id="g4">
      <path
         inkscape:connector-curvature="0"
         d="M 396.911,0 H 115.089 C 87.93,0 65.834,22.096 65.834,49.255 v 413.49 c 0,27.159 22.096,49.255 49.255,49.255 h 281.822 c 27.159,0 49.255,-22.096 49.255,-49.255 V 49.255 C 446.166,22.096 424.07,0 396.911,0 Z M 133.343,85.096 c 0,-8.284 6.716,-15 15,-15 h 215.313 c 8.284,0 15,6.716 15,15 v 29.618 c 0,8.284 -6.716,15 -15,15 H 148.343 c -8.284,0 -15,-6.716 -15,-15 z m 50.501,336.82 c 0,8.284 -6.716,15 -15,15 h -20.5 c -8.284,0 -15,-6.716 -15,-15 v -14.212 c 0,-8.284 6.716,-15 15,-15 h 20.5 c 8.284,0 15,6.716 15,15 z m 0,-88.77 c 0,8.284 -6.716,15 -15,15 h -20.5 c -8.284,0 -15,-6.716 -15,-15 v -14.212 c 0,-8.284 6.716,-15 15,-15 h 20.5 c 8.284,0 15,6.716 15,15 z m 98.635,88.77 c 0,8.284 -6.716,15 -15,15 h -20.5 c -8.285,0 -15,-6.716 -15,-15 v -14.212 c 0,-8.284 6.715,-15 15,-15 h 20.5 c 8.284,0 15,6.716 15,15 z m 0,-88.77 c 0,8.284 -6.716,15 -15,15 h -20.5 c -8.285,0 -15,-6.716 -15,-15 v -14.212 c 0,-8.284 6.715,-15 15,-15 h 20.5 c 8.284,0 15,6.716 15,15 z m 0,-88.771 c 0,8.285 -6.716,15 -15,15 H 148.343 c -8.284,0 -15,-6.716 -15,-15 v -14.212 c 0,-8.284 6.716,-15 15,-15 h 119.136 c 8.284,0 15,6.716 15,15 z m 98.635,177.541 c 0,8.284 -6.716,15 -15,15 h -20.5 c -8.284,0 -15,-6.716 -15,-15 v -14.212 c 0,-8.284 6.716,-15 15,-15 h 20.5 c 8.284,0 15,6.716 15,15 z m 0,-88.77 c 0,8.284 -6.716,15 -15,15 h -20.5 c -8.284,0 -15,-6.716 -15,-15 v -14.212 c 0,-8.284 6.716,-15 15,-15 h 20.5 c 8.284,0 15,6.716 15,15 z m 0,-88.771 c 0,8.285 -6.716,15 -15,15 h -20.5 c -8.284,0 -15,-6.716 -15,-15 v -14.212 c 0,-8.284 6.716,-15 15,-15 h 20.5 c 8.284,0 15,6.716 15,15 z"
         id="path2" />
    </g>
  </g>
</svg>
