<?xml version="1.0" encoding="UTF-8" standalone="no"?>
<svg
   xmlns:dc="http://purl.org/dc/elements/1.1/"
   xmlns:cc="http://creativecommons.org/ns#"
   xmlns:rdf="http://www.w3.org/1999/02/22-rdf-syntax-ns#"
   xmlns:svg="http://www.w3.org/2000/svg"
   xmlns="http://www.w3.org/2000/svg"
   xmlns:sodipodi="http://sodipodi.sourceforge.net/DTD/sodipodi-0.dtd"
   xmlns:inkscape="http://www.inkscape.org/namespaces/inkscape"
   id="Capa_1"
   enable-background="new 0 0 511.938 511.938"
   height="48"
   viewBox="0 0 48 48"
   width="48"
   version="1.1"
   sodipodi:docname="diamond.svg"
   inkscape:version="0.92.4 (5da689c313, 2019-01-14)">
  <metadata
     id="metadata15">
    <rdf:RDF>
      <cc:Work
         rdf:about="">
        <dc:format>image/svg+xml</dc:format>
        <dc:type
           rdf:resource="http://purl.org/dc/dcmitype/StillImage" />
        <dc:title></dc:title>
      </cc:Work>
    </rdf:RDF>
  </metadata>
  <defs
     id="defs13" />
  <sodipodi:namedview
     pagecolor="#ffffff"
     bordercolor="#666666"
     borderopacity="1"
     objecttolerance="10"
     gridtolerance="10"
     guidetolerance="10"
     inkscape:pageopacity="0"
     inkscape:pageshadow="2"
     inkscape:window-width="1920"
     inkscape:window-height="1017"
     id="namedview11"
     showgrid="true"
     inkscape:zoom="4"
     inkscape:cx="49.466411"
     inkscape:cy="48.168865"
     inkscape:window-x="-8"
     inkscape:window-y="1072"
     inkscape:window-maximized="1"
     inkscape:current-layer="Capa_1">
    <inkscape:grid
       type="xygrid"
       id="grid825" />
  </sodipodi:namedview>
  <g
     id="g8"
     transform="matrix(0.07032112,0,0,0.07032112,5.9999603,5.9999205)">
    <g
       id="g6">
      <path
         d="m 511.506,158.5 c 0.893,-2.92 0.386,-6.202 -1.383,-8.701 L 437.642,47.462 c -1.875,-2.647 -4.917,-4.22 -8.161,-4.22 H 82.443 c -3.192,0 -6.346,1.628 -8.178,4.245 L 1.802,149.8 c -2.543,3.593 -2.378,8.661 0.396,12.081 l 246,303.179 c 3.929,4.848 11.602,4.852 15.53,0 L 375.123,327.773 c 3.48,-4.289 2.824,-10.586 -1.464,-14.066 -4.288,-3.48 -10.585,-2.825 -14.066,1.464 l -77.284,95.248 80.143,-244.839 h 118.52 l -66.23,81.625 c -3.48,4.289 -2.824,10.586 1.464,14.066 4.287,3.479 10.586,2.825 14.066,-1.464 l 79.457,-97.926 c 0.803,-0.991 1.404,-2.164 1.777,-3.381 z m -106.111,-95.259 -50.282,74.58 -51.362,-74.58 z m -125.927,0 56.705,82.338 H 175.03 l 57.122,-82.338 z m 61.938,102.338 -85.482,261.15 -86.172,-261.15 z M 207.81,63.241 155.782,138.238 101.934,63.241 Z M 82.499,70.465 136.431,145.58 H 29.299 Z m 66.192,95.114 80.697,244.556 L 30.954,165.579 Z m 225.313,-20 52.973,-78.572 55.648,78.572 z"
         id="path2"
         inkscape:connector-curvature="0" />
      <path
         d="m 405.062,282.56 c -2.096,-5.032 -8.021,-7.491 -13.06,-5.41 -5.036,2.079 -7.492,8.031 -5.41,13.06 2.085,5.037 8.023,7.496 13.06,5.41 5.047,-2.091 7.476,-8.019 5.41,-13.06 z"
         id="path4"
         inkscape:connector-curvature="0" />
    </g>
  </g>
</svg>
