<?xml version="1.0" encoding="UTF-8" standalone="no"?>
<svg
   xmlns:dc="http://purl.org/dc/elements/1.1/"
   xmlns:cc="http://creativecommons.org/ns#"
   xmlns:rdf="http://www.w3.org/1999/02/22-rdf-syntax-ns#"
   xmlns:svg="http://www.w3.org/2000/svg"
   xmlns="http://www.w3.org/2000/svg"
   xmlns:sodipodi="http://sodipodi.sourceforge.net/DTD/sodipodi-0.dtd"
   xmlns:inkscape="http://www.inkscape.org/namespaces/inkscape"
   id="Capa_1"
   enable-background="new 0 0 511.938 511.938"
   height="48"
   viewBox="0 0 48 48"
   width="48"
   version="1.1"
   sodipodi:docname="instagram.svg"
   inkscape:version="0.92.4 (5da689c313, 2019-01-14)">
  <metadata
     id="metadata15">
    <rdf:RDF>
      <cc:Work
         rdf:about="">
        <dc:format>image/svg+xml</dc:format>
        <dc:type
           rdf:resource="http://purl.org/dc/dcmitype/StillImage" />
        <dc:title></dc:title>
      </cc:Work>
    </rdf:RDF>
  </metadata>
  <defs
     id="defs13">
    <linearGradient
       id="SVGID_1_"
       gradientTransform="matrix(0,-2.9644584,-2.7580531,0,-192.10719,-70.341403)"
       gradientUnits="userSpaceOnUse"
       x1="-37.105999"
       x2="-26.555"
       y1="-72.705002"
       y2="-84.046997">
      <stop
         offset="0"
         stop-color="#fd5"
         id="stop2" />
      <stop
         offset=".5"
         stop-color="#ff543e"
         id="stop4" />
      <stop
         offset="1"
         stop-color="#c837ab"
         id="stop6" />
    </linearGradient>
  </defs>
  <sodipodi:namedview
     pagecolor="#ffffff"
     bordercolor="#666666"
     borderopacity="1"
     objecttolerance="10"
     gridtolerance="10"
     guidetolerance="10"
     inkscape:pageopacity="0"
     inkscape:pageshadow="2"
     inkscape:window-width="1920"
     inkscape:window-height="1017"
     id="namedview11"
     showgrid="true"
     inkscape:zoom="5.656854"
     inkscape:cx="21.829479"
     inkscape:cy="11.487936"
     inkscape:window-x="-8"
     inkscape:window-y="-8"
     inkscape:window-maximized="1"
     inkscape:current-layer="Capa_1"
     showguides="false">
    <inkscape:grid
       type="xygrid"
       id="grid825" />
  </sodipodi:namedview>
  <path
     inkscape:connector-curvature="0"
     style="fill:url(#SVGID_1_);stroke-width:1.49569046"
     d="m 8.3482285,8.4964374 c -2.82088,2.9300596 -2.24354,6.0425896 -2.24354,15.4983496 0,7.85237 -1.37005,15.72419 5.8002895,17.57735 2.23905,0.57584 22.07789,0.57584 24.31394,-0.003 2.9854,-0.77028 5.4144,-3.1918 5.74645,-7.41414 0.0464,-0.5893 0.0464,-19.72068 -10e-4,-20.32195 -0.35298,-4.4975296 -3.12151,-7.0895696 -6.76949,-7.6145496 -0.8361,-0.12115 -1.00361,-0.15705 -5.29325,-0.16453 -15.21566,0.007 -18.55105,-0.67007 -21.5528995,2.44246 z"
     id="path9" />
  <path
     inkscape:connector-curvature="0"
     style="fill:#ffffff;stroke-width:1.49569046"
     d="m 24.000326,10.743322 c -5.43085,0 -10.58799,-0.4831 -12.55781,4.57233 -0.81366,2.08798 -0.6955,4.79967 -0.6955,8.68248 0,3.40719 -0.10918,6.60946 0.6955,8.68099 1.96534,5.05843 7.16435,4.57382 12.55482,4.57382 5.20052,0 10.56257,0.54144 12.55633,-4.57382 0.81515,-2.10892 0.69549,-4.78023 0.69549,-8.68099 0,-5.17808 0.28568,-8.52095 -2.22559,-11.03071 -2.54267,-2.54268 -5.98126,-2.2241 -11.02922,-2.2241 z m -1.18757,2.38862 c 11.32836,-0.0179 12.7702,-1.27732 11.9745,16.21777 -0.28269,6.18767 -4.99412,5.50863 -10.78543,5.50863 -10.55957,0 -10.8632,-0.30213 -10.8632,-10.86619 0,-10.68671 0.83759,-10.85423 9.67413,-10.8632 z m 8.26219,2.20016 c -0.87797,0 -1.58992,0.71195 -1.58992,1.58992 0,0.87797 0.71195,1.58992 1.58992,1.58992 0.87797,0 1.58992,-0.71195 1.58992,-1.58992 0,-0.87797 -0.71195,-1.58992 -1.58992,-1.58992 z m -7.07462,1.85915 c -3.75867,0 -6.80539,3.04821 -6.80539,6.80688 0,3.75867 3.04672,6.80539 6.80539,6.80539 3.75868,0 6.8039,-3.04672 6.8039,-6.80539 0,-3.75867 -3.04522,-6.80688 -6.8039,-6.80688 z m 0,2.38861 c 5.84068,0 5.84816,8.83654 0,8.83654 -5.83917,0 -5.84814,-8.83654 0,-8.83654 z"
     id="path11" />
</svg>
