<?xml version="1.0" encoding="UTF-8" standalone="no"?>
<!-- Generator: Adobe Illustrator 18.1.1, SVG Export Plug-In . SVG Version: 6.00 Build 0)  -->

<svg
   xmlns:dc="http://purl.org/dc/elements/1.1/"
   xmlns:cc="http://creativecommons.org/ns#"
   xmlns:rdf="http://www.w3.org/1999/02/22-rdf-syntax-ns#"
   xmlns:svg="http://www.w3.org/2000/svg"
   xmlns="http://www.w3.org/2000/svg"
   xmlns:sodipodi="http://sodipodi.sourceforge.net/DTD/sodipodi-0.dtd"
   xmlns:inkscape="http://www.inkscape.org/namespaces/inkscape"
   version="1.1"
   id="Capa_1"
   x="0px"
   y="0px"
   viewBox="0 0 48 48"
   xml:space="preserve"
   sodipodi:docname="thermometer.svg"
   width="48"
   height="48"
   inkscape:version="0.92.4 (5da689c313, 2019-01-14)"><metadata
   id="metadata65"><rdf:RDF><cc:Work
       rdf:about=""><dc:format>image/svg+xml</dc:format><dc:type
         rdf:resource="http://purl.org/dc/dcmitype/StillImage" /><dc:title></dc:title></cc:Work></rdf:RDF></metadata><defs
   id="defs63" /><sodipodi:namedview
   pagecolor="#ffffff"
   bordercolor="#666666"
   borderopacity="1"
   objecttolerance="10"
   gridtolerance="10"
   guidetolerance="10"
   inkscape:pageopacity="0"
   inkscape:pageshadow="2"
   inkscape:window-width="1920"
   inkscape:window-height="1017"
   id="namedview61"
   showgrid="true"
   fit-margin-top="0"
   fit-margin-left="0"
   fit-margin-right="0"
   fit-margin-bottom="0"
   inkscape:pagecheckerboard="false"
   inkscape:zoom="4"
   inkscape:cx="64.196464"
   inkscape:cy="31.965012"
   inkscape:window-x="-8"
   inkscape:window-y="1072"
   inkscape:window-maximized="1"
   inkscape:current-layer="Capa_1"><inkscape:grid
     type="xygrid"
     id="grid3771"
     originx="-10.296"
     originy="0.00101" /></sodipodi:namedview>
<g
   id="g28"
   transform="matrix(0.11982014,0,0,0.11982014,5.0001204,5.0000006)"
   style="fill-opacity:1">
	<g
   id="g26"
   style="fill-opacity:1">
		<path
   style="fill-opacity:1"
   d="m 130.608,85.105 c 3.117,-0.669 6.347,-1.044 9.66,-1.044 3.313,0 6.543,0.37 9.66,1.044 V 48.707 L 183.454,15.181 169.797,1.523 149.928,21.386 V 0 h -19.32 V 21.386 L 110.745,1.523 97.087,15.18 130.613,48.706 v 36.398 h -0.005 z"
   id="path2"
   inkscape:connector-curvature="0" />
		<path
   style="fill-opacity:1"
   d="m 193.788,139.632 v -19.32 h -8.654 c 0.669,3.117 1.044,6.347 1.044,9.66 0,3.312 -0.37,6.543 -1.044,9.66 0.001,0 8.654,0 8.654,0 z"
   id="path4"
   inkscape:connector-curvature="0" />
		<path
   style="fill-opacity:1"
   d="m 149.928,259.938 v -21.386 l 14.473,14.473 c -0.136,-2.023 -0.256,-4.058 -0.256,-6.124 0,-6.984 0.816,-13.331 2.284,-19.167 l -16.502,-16.502 v -36.398 c -3.117,0.669 -6.347,1.044 -9.66,1.044 -3.312,0 -6.543,-0.37 -9.66,-1.044 v 36.398 l -33.526,33.526 13.657,13.658 19.863,-19.863 v 21.386 c 0.002,-0.001 19.327,-0.001 19.327,-0.001 z"
   id="path6"
   inkscape:connector-curvature="0" />
		<path
   style="fill-opacity:1"
   d="m 11.819,159.495 13.657,13.658 33.526,-33.526 H 95.4 c -0.669,-3.117 -1.044,-6.347 -1.044,-9.66 0,-3.312 0.37,-6.543 1.044,-9.66 H 59.003 L 25.477,86.78 11.82,100.437 31.683,120.3 H 10.296 v 19.32 h 21.386 z"
   id="path8"
   inkscape:connector-curvature="0" />
		<path
   style="fill-opacity:1"
   d="m 28.332,79.845 47.412,-0.212 25.885,25.651 c 3.514,-5.483 8.142,-10.171 13.592,-13.734 L 89.347,65.91 89.13,18.498 69.81,18.585 69.935,46.678 54.744,31.628 41.147,45.351 56.338,60.401 28.245,60.526 Z"
   id="path10"
   inkscape:connector-curvature="0" />
		<path
   style="fill-opacity:1"
   d="M 178.907,105.279 193.788,90.534 V 52.046 c 0,-14.849 6.831,-25.047 16.921,-30.073 l 0.016,-3.383 -19.32,-0.087 -0.218,47.412 -25.874,25.64 c 5.452,3.558 10.08,8.246 13.594,13.724 z"
   id="path12"
   inkscape:connector-curvature="0" />
		<path
   style="fill-opacity:1"
   d="m 165.315,168.393 23.992,23.774 c 1.463,-1.251 2.915,-2.518 4.476,-3.699 v -19.064 l -14.881,-14.745 c -3.509,5.483 -8.137,10.172 -13.587,13.734 z"
   id="path14"
   inkscape:connector-curvature="0" />
		<path
   style="fill-opacity:1"
   d="m 75.744,180.31 -47.412,-0.212 -0.087,19.32 28.093,0.125 -15.191,15.05 13.598,13.723 15.191,-15.05 -0.125,28.093 19.32,0.087 0.218,-47.412 25.874,-25.64 c -5.444,-3.563 -10.079,-8.251 -13.592,-13.734 z"
   id="path16"
   inkscape:connector-curvature="0" />
		<circle
   style="fill-opacity:1"
   cx="140.26801"
   cy="129.972"
   r="35.028"
   id="circle18" />
		<path
   style="fill-opacity:1"
   d="m 230.654,70.74 v 9.007 31.438 30.29 h 20.048 0.054 v -1.849 -19.32 -1.904 -27.32 -11.247 -9.1 c 0,-4.634 -0.604,-7.898 -1.523,-10.225 -2.241,-5.689 -6.391,-5.716 -8.528,-5.716 -2.121,0 -6.249,0.027 -8.496,5.64 -0.935,2.338 -1.555,5.623 -1.555,10.306 z"
   id="path20"
   inkscape:connector-curvature="0" />
		<path
   style="fill-opacity:1"
   d="m 206.287,58.345 v 21.294 40.673 19.32 40.673 15.855 c -5.689,3.601 -10.699,8.126 -15.028,13.239 -6.951,8.208 -11.884,18.112 -14.12,29.045 -0.87,4.253 -1.458,8.61 -1.458,13.119 0,0.31 0.044,0.609 0.044,0.914 0.495,35.794 29.627,64.665 65.535,64.665 4.574,0 9.034,-0.473 13.342,-1.365 29.822,-6.157 52.242,-32.564 52.242,-64.208 0,-24.09 -13.027,-45.09 -32.384,-56.49 V 58.345 c 0,-16.214 -11.33,-29.752 -26.494,-33.205 -2.442,-0.555 -4.977,-0.876 -7.593,-0.876 -12.793,0 -23.921,7.054 -29.752,17.481 -2.751,4.911 -4.334,10.568 -4.334,16.6 z m 34.419,-8.985 c 11.808,0 15.49,9.573 15.49,21.386 v 17.182 25.041 7.343 19.32 1.849 5.493 25.041 43.453 c 16.23,4.155 24.813,18.205 25.977,32.188 0.141,1.071 0.234,2.154 0.234,3.253 0,22.724 -18.422,41.147 -41.146,41.147 -22.724,0 -41.141,-18.422 -41.141,-41.147 0,-1.104 0.098,-2.192 0.245,-3.269 0.174,-2.154 0.506,-4.237 1.006,-6.244 1.621,-6.511 4.786,-12.216 9.279,-16.644 1.947,-1.92 4.183,-3.519 6.554,-4.944 2.491,-1.496 5.129,-2.785 8.012,-3.666 v -15.599 -1.012 -19.32 -36.899 -1.838 -24.851 -36.897 -8.986 c 0,-3.769 0.435,-7.256 1.327,-10.329 0.402,-1.392 0.908,-2.681 1.539,-3.862 1.343,-2.507 3.214,-4.487 5.771,-5.716 1.909,-0.919 4.144,-1.473 6.853,-1.473 z"
   id="path22"
   inkscape:connector-curvature="0" />
		<path
   style="fill-opacity:1"
   d="m 261.565,277.213 c 7.946,-9.1 11.661,-20.342 10.622,-31.465 -0.702,-7.533 -15.159,-7.587 -14.452,0 0.87,9.306 -2.007,17.911 -8.648,25.515 -5.422,6.205 7.12,12.085 12.478,5.95 z"
   id="path24"
   inkscape:connector-curvature="0" />
	</g>
</g>
<g
   id="g30"
   transform="translate(-10.296,-269.142)">
</g>
<g
   id="g32"
   transform="translate(-10.296,-269.142)">
</g>
<g
   id="g34"
   transform="translate(-10.296,-269.142)">
</g>
<g
   id="g36"
   transform="translate(-10.296,-269.142)">
</g>
<g
   id="g38"
   transform="translate(-10.296,-269.142)">
</g>
<g
   id="g40"
   transform="translate(-10.296,-269.142)">
</g>
<g
   id="g42"
   transform="translate(-10.296,-269.142)">
</g>
<g
   id="g44"
   transform="translate(-10.296,-269.142)">
</g>
<g
   id="g46"
   transform="translate(-10.296,-269.142)">
</g>
<g
   id="g48"
   transform="translate(-10.296,-269.142)">
</g>
<g
   id="g50"
   transform="translate(-10.296,-269.142)">
</g>
<g
   id="g52"
   transform="translate(-10.296,-269.142)">
</g>
<g
   id="g54"
   transform="translate(-10.296,-269.142)">
</g>
<g
   id="g56"
   transform="translate(-10.296,-269.142)">
</g>
<g
   id="g58"
   transform="translate(-10.296,-269.142)">
</g>
</svg>